<svg width="24" height="24" viewBox="0 0 24 24" fill="none" xmlns="http://www.w3.org/2000/svg">
    <path d="M5.54094 0.916297C4.31921 -0.305432 2.33839 -0.305432 1.11666 0.916297L0.916297 1.11666C-0.305432 2.33839 -0.305432 4.31921 0.916297 5.54094L5.16322 9.78786C6.38495 11.0096 6.38495 12.9904 5.16322 14.2121L0.916297 18.4591C-0.305432 19.6808 -0.305432 21.6616 0.916297 22.8833L1.11666 23.0837C2.33839 24.3054 4.31921 24.3054 5.54094 23.0837L9.78786 18.8368C11.0096 17.615 12.9904 17.615 14.2121 18.8368L18.4591 23.0837C19.6808 24.3054 21.6616 24.3054 22.8833 23.0837L23.0837 22.8833C24.3054 21.6616 24.3054 19.6808 23.0837 18.4591L18.8368 14.2121C17.615 12.9904 17.615 11.0096 18.8368 9.78786L23.0837 5.54094C24.3054 4.31921 24.3054 2.33839 23.0837 1.11666L22.8833 0.916297C21.6616 -0.305432 19.6808 -0.305432 18.4591 0.916297L14.2121 5.16322C12.9904 6.38495 11.0096 6.38495 9.78786 5.16322L5.54094 0.916297Z" fill="white"/>
</svg>
