<svg width="22" height="23" viewBox="0 0 22 23" fill="none" xmlns="http://www.w3.org/2000/svg">
    <path d="M21.9441 7.36261C21.8925 6.19366 21.7035 5.39002 21.4326 4.69366C21.1532 3.95448 20.7234 3.2927 20.1602 2.74255C19.6099 2.18385 18.9437 1.74971 18.2129 1.47472C17.5124 1.20393 16.7128 1.0149 15.5436 0.963362C14.3657 0.907458 13.9918 0.894531 11.0043 0.894531C8.01679 0.894531 7.64285 0.907458 6.46931 0.958997C5.30014 1.01054 4.49635 1.19974 3.80002 1.47036C3.06053 1.74971 2.39862 2.17948 1.84838 2.74255C1.28956 3.2927 0.855512 3.95884 0.580304 4.68946C0.309462 5.39002 0.120393 6.1893 0.0688439 7.35825C0.0129292 8.53592 0 8.90979 0 11.8967C0 14.8836 0.0129292 15.2575 0.0644782 16.4308C0.116027 17.5998 0.305264 18.4034 0.576106 19.0998C0.855512 19.8389 1.28956 20.5007 1.84838 21.0509C2.39862 21.6096 3.0649 22.0437 3.79565 22.3187C4.49635 22.5895 5.29578 22.7785 6.46512 22.8301C7.63849 22.8818 8.01259 22.8945 11.0001 22.8945C13.9876 22.8945 14.3615 22.8818 15.5351 22.8301C16.7042 22.7785 17.508 22.5895 18.2043 22.3187C19.6831 21.7471 20.8523 20.5781 21.4241 19.0998C21.6947 18.3992 21.884 17.5998 21.9355 16.4308C21.9871 15.2575 22 14.8836 22 11.8967C22 8.90979 21.9956 8.53592 21.9441 7.36261ZM19.9626 16.3449C19.9152 17.4193 19.7347 17.9995 19.5842 18.3863C19.2145 19.3447 18.4537 20.1054 17.4951 20.475C17.1082 20.6255 16.5237 20.8059 15.4533 20.8531C14.2927 20.9048 13.9446 20.9176 11.0086 20.9176C8.07271 20.9176 7.72026 20.9048 6.56385 20.8531C5.48921 20.8059 4.90891 20.6255 4.52204 20.475C4.045 20.2988 3.61078 20.0194 3.25833 19.6541C2.89296 19.2974 2.61355 18.8676 2.43724 18.3906C2.28679 18.0039 2.10629 17.4193 2.05911 16.3492C2.00739 15.1888 1.99463 14.8407 1.99463 11.9053C1.99463 8.96989 2.00739 8.61751 2.05911 7.46149C2.10629 6.38706 2.28679 5.80687 2.43724 5.42007C2.61355 4.94296 2.89296 4.50899 3.2627 4.15644C3.61934 3.79113 4.0492 3.51178 4.5264 3.33567C4.91327 3.18525 5.49794 3.00478 6.56821 2.95744C7.72882 2.9059 8.07707 2.89297 11.0128 2.89297C13.9532 2.89297 14.3012 2.9059 15.4576 2.95744C16.5323 3.00478 17.1126 3.18525 17.4995 3.33567C17.9765 3.51178 18.4107 3.79113 18.7632 4.15644C19.1285 4.51318 19.4079 4.94296 19.5842 5.42007C19.7347 5.80687 19.9152 6.39126 19.9626 7.46149C20.0141 8.62188 20.027 8.96989 20.027 11.9053C20.027 14.8407 20.0141 15.1845 19.9626 16.3449Z" fill="url(#paint0_linear)"/>
    <path d="M11 6.22085C7.86771 6.22085 5.32632 8.76207 5.32632 11.8945C5.32632 15.027 7.86771 17.5682 11 17.5682C14.1325 17.5682 16.6737 15.027 16.6737 11.8945C16.6737 8.76207 14.1325 6.22085 11 6.22085ZM11 15.5749C8.96793 15.5749 7.31962 13.9268 7.31962 11.8945C7.31962 9.86229 8.96793 8.21415 11 8.21415C13.0322 8.21415 14.6804 9.86229 14.6804 11.8945C14.6804 13.9268 13.0322 15.5749 11 15.5749Z" fill="url(#paint1_linear)"/>
    <path d="M18.0632 5.87348C18.0632 6.57685 17.4929 7.14716 16.7894 7.14716C16.0861 7.14716 15.5158 6.57685 15.5158 5.87348C15.5158 5.16995 16.0861 4.59979 16.7894 4.59979C17.4929 4.59979 18.0632 5.16995 18.0632 5.87348Z" fill="url(#paint2_linear)"/>
    <defs>
        <linearGradient id="paint0_linear" x1="5" y1="23" x2="21.5" y2="3.5" gradientUnits="userSpaceOnUse">
            <stop stop-color="#FFDA59"/>
            <stop offset="0.380208" stop-color="#E798E9"/>
            <stop offset="0.6875" stop-color="#D459FF"/>
            <stop offset="1" stop-color="#6659FF"/>
        </linearGradient>
        <linearGradient id="paint1_linear" x1="5" y1="23" x2="21.5" y2="3.5" gradientUnits="userSpaceOnUse">
            <stop stop-color="#FFDA59"/>
            <stop offset="0.380208" stop-color="#E798E9"/>
            <stop offset="0.6875" stop-color="#D459FF"/>
            <stop offset="1" stop-color="#6659FF"/>
        </linearGradient>
        <linearGradient id="paint2_linear" x1="5" y1="23" x2="21.5" y2="3.5" gradientUnits="userSpaceOnUse">
            <stop stop-color="#FFDA59"/>
            <stop offset="0.380208" stop-color="#E798E9"/>
            <stop offset="0.6875" stop-color="#D459FF"/>
            <stop offset="1" stop-color="#6659FF"/>
        </linearGradient>
    </defs>
</svg>
