<svg width="189" height="36" viewBox="0 0 189 36" fill="none" xmlns="http://www.w3.org/2000/svg">
    <path d="M93.0719 27.3828V8.02999C93.0719 7.73832 93.1234 7.44666 93.2435 7.18931C93.3636 6.93195 93.518 6.69176 93.741 6.48588L93.7582 6.46872C93.9641 6.26284 94.2043 6.10843 94.4616 6.00549C94.719 5.90255 94.9935 5.85108 95.2851 5.85108C95.5597 5.85108 95.817 5.90255 96.0744 5.98833C96.3317 6.07412 96.5547 6.19422 96.7778 6.36578C96.8807 6.43441 96.9665 6.52019 97.0351 6.62313L103.177 14.052L109.371 6.58882C109.457 6.48588 109.56 6.38294 109.68 6.31431C109.868 6.17706 110.074 6.07412 110.28 6.00549C110.537 5.91971 110.812 5.86824 111.086 5.86824C111.378 5.86824 111.653 5.91971 111.91 6.02265C112.167 6.12559 112.39 6.28 112.613 6.48588L112.648 6.52019C112.854 6.72607 113.008 6.94911 113.111 7.20646C113.231 7.48097 113.283 7.75548 113.283 8.04714V27.3999C113.283 27.6916 113.231 27.9833 113.111 28.2406C112.991 28.498 112.836 28.7382 112.613 28.944L112.596 28.9612C112.39 29.1671 112.15 29.3215 111.893 29.4244C111.636 29.5274 111.361 29.5788 111.069 29.5788H110.984C110.692 29.5788 110.417 29.5274 110.16 29.4244C109.903 29.3215 109.68 29.1671 109.457 28.9612L109.422 28.9269C109.216 28.721 109.062 28.498 108.959 28.2406C108.839 27.9661 108.787 27.6916 108.787 27.3999V13.9834L106.334 17.0201C105.339 18.2554 104.79 18.9073 104.687 18.9931L104.618 19.0446C104.395 19.2162 104.189 19.3363 103.949 19.4221C103.898 19.4392 103.846 19.4564 103.812 19.4735C103.589 19.5421 103.383 19.5765 103.16 19.5765C102.868 19.5765 102.594 19.525 102.319 19.4221C102.045 19.3191 101.805 19.1647 101.599 18.9588C101.547 18.9074 101.496 18.8387 101.444 18.7873C101.29 18.5985 100.758 17.9294 99.8488 16.7971C99.4542 16.3167 98.6993 15.3902 97.5498 13.9834V27.3999C97.5498 27.6916 97.4984 27.9833 97.3783 28.2406C97.2582 28.498 97.1038 28.7382 96.8807 28.944L96.8636 28.9612C96.6577 29.1671 96.4175 29.3215 96.1601 29.4244C95.9028 29.5274 95.6283 29.5788 95.3366 29.5788H95.2508C94.9592 29.5788 94.6847 29.5274 94.4273 29.4244C94.17 29.3215 93.9469 29.1671 93.7239 28.9612L93.6896 28.9269C93.4837 28.721 93.3293 28.498 93.2263 28.2406C93.1234 27.9661 93.0719 27.6916 93.0719 27.3828ZM72.0206 17.7064C72.0206 18.2554 72.0721 18.7701 72.175 19.2676C72.278 19.7652 72.4324 20.2627 72.6383 20.7603L72.6554 20.8289C72.8613 21.2921 73.0843 21.7382 73.376 22.15C73.6505 22.5789 73.9765 22.9735 74.3025 23.3166C74.6456 23.6598 75.0231 23.9857 75.4348 24.2774C75.8466 24.5691 76.3098 24.8093 76.7902 25.0323C77.2706 25.2553 77.7681 25.4097 78.2657 25.5127C78.7632 25.6156 79.2779 25.6671 79.8098 25.6671C80.5132 25.6671 81.1823 25.5813 81.8 25.4098C82.4348 25.2382 83.0352 24.9637 83.6014 24.6205C84.1847 24.2603 84.6994 23.8313 85.1455 23.3509C85.5916 22.8706 85.9862 22.3215 86.3122 21.7211L86.3465 21.6696C86.6553 21.0691 86.8955 20.4686 87.0499 19.8167C87.2215 19.1647 87.2901 18.4613 87.2901 17.7235C87.2901 16.9858 87.2043 16.2995 87.0499 15.6304C86.8783 14.9785 86.6382 14.3265 86.3122 13.726C85.9862 13.1084 85.5916 12.5594 85.1455 12.0961C84.6994 11.6157 84.1847 11.204 83.6014 10.8437C83.5671 10.8265 83.5499 10.8094 83.5156 10.7922C82.9666 10.4662 82.4004 10.226 81.8 10.0545C81.1823 9.88291 80.5132 9.79713 79.8098 9.79713C79.2779 9.79713 78.7632 9.8486 78.2657 9.95154C77.7681 10.0545 77.2706 10.2089 76.7902 10.4319C76.2927 10.655 75.8466 10.8952 75.4348 11.1697C75.0231 11.4613 74.6456 11.7702 74.3025 12.1133C73.9593 12.4736 73.6334 12.851 73.3589 13.2799C73.0843 13.7089 72.827 14.1721 72.6211 14.6696C72.4152 15.1843 72.2437 15.6819 72.1579 16.1623C72.0721 16.6427 72.0206 17.1574 72.0206 17.7064ZM67.577 17.7064C67.577 16.9 67.6628 16.0765 67.8172 15.2701C67.9888 14.4638 68.229 13.6917 68.5378 12.9368C68.8466 12.1991 69.2241 11.4956 69.6702 10.8437C70.0991 10.1917 70.5966 9.59125 71.1456 9.04223C71.6946 8.49322 72.2951 7.99567 72.9471 7.56675C73.599 7.13784 74.2853 6.76039 75.023 6.43441L75.0917 6.4001C75.8123 6.09127 76.5672 5.86824 77.3392 5.71383C78.1456 5.54226 78.9519 5.47363 79.7755 5.47363C80.599 5.47363 81.4054 5.55942 82.1946 5.71383C82.9838 5.86824 83.7558 6.12559 84.4936 6.43441C85.2313 6.76039 85.9176 7.13784 86.5524 7.56675C87.1872 8.01283 87.7705 8.51037 88.3024 9.05939C88.8171 9.59125 89.2975 10.1917 89.7092 10.8437C90.1381 11.4956 90.4984 12.1991 90.7901 12.9368C91.0989 13.6917 91.3219 14.4638 91.4764 15.253C91.6308 16.0422 91.6994 16.8657 91.6994 17.6892C91.6994 18.5127 91.6308 19.3191 91.4764 20.1083C91.3219 20.8975 91.0989 21.6696 90.7901 22.4245C90.4984 23.1622 90.1381 23.8485 89.7092 24.5176C89.2975 25.1696 88.8171 25.77 88.3024 26.3191C87.7705 26.8681 87.1872 27.3828 86.5524 27.8288C85.9176 28.2749 85.2313 28.6524 84.4936 28.9783C83.7558 29.3043 82.9838 29.5445 82.1946 29.7161C81.4054 29.8877 80.5818 29.9734 79.7755 29.9734C78.9519 29.9734 78.1456 29.8877 77.3392 29.7332C76.55 29.5788 75.7779 29.3215 75.0059 28.9955C74.2682 28.6867 73.5819 28.2921 72.9128 27.8632C72.2608 27.4171 71.6603 26.9367 71.1113 26.3877C70.5623 25.8387 70.0648 25.2382 69.6358 24.5691C69.2069 23.9171 68.8295 23.2308 68.5207 22.4588C68.1947 21.7039 67.9545 20.9318 67.8001 20.1255C67.6628 19.3191 67.577 18.5127 67.577 17.7064ZM53.0624 25.1181H54.8124C55.5159 25.1181 56.185 25.0323 56.8198 24.8607C57.4546 24.6892 58.0551 24.4318 58.6212 24.0887C59.1874 23.7455 59.7021 23.3338 60.1482 22.8706C60.5942 22.4073 60.9888 21.8755 61.3148 21.2921C61.6408 20.6916 61.881 20.074 62.0526 19.4221C62.2241 18.7701 62.2928 18.0838 62.2928 17.3632C62.2928 16.6427 62.207 15.9735 62.0526 15.3559C61.8982 14.7554 61.658 14.1892 61.332 13.6574L61.2977 13.5888C60.9888 13.0741 60.6114 12.628 60.1996 12.2334C59.7536 11.8216 59.256 11.4613 58.707 11.1697C58.1408 10.878 57.5232 10.655 56.9056 10.5006C56.2536 10.3461 55.5673 10.2775 54.8296 10.2775H53.0796V25.1181H53.0624ZM48.5674 27.3828V7.99567C48.5674 7.70401 48.6189 7.4295 48.739 7.15499C48.859 6.88048 49.0135 6.64029 49.2365 6.43441C49.4424 6.22853 49.6826 6.09128 49.9571 5.98833C50.2144 5.88539 50.4889 5.83392 50.7634 5.83392H54.7781C55.5845 5.83392 56.3908 5.90255 57.1801 6.0398C57.9693 6.17706 58.7242 6.38294 59.4447 6.6746C60.1653 6.94911 60.8516 7.29225 61.4864 7.68685C62.1212 8.08146 62.7045 8.52753 63.2364 9.02508C63.7682 9.52262 64.2658 10.0888 64.6775 10.7064C65.1065 11.3241 65.4668 11.9932 65.7756 12.6966C66.0844 13.4172 66.3074 14.1721 66.4618 14.9441C66.6163 15.7162 66.6849 16.5226 66.6849 17.3461C66.6849 18.1696 66.5991 18.976 66.4618 19.7652C66.3074 20.5544 66.0844 21.3264 65.7756 22.0813C65.4839 22.8191 65.1236 23.5054 64.6947 24.1573C64.2658 24.8093 63.8026 25.4097 63.2707 25.9588C62.7388 26.5078 62.1555 27.0053 61.5207 27.4342C60.8859 27.8632 60.1996 28.2406 59.4619 28.5666C58.7242 28.8926 57.9521 29.1328 57.1629 29.2872C56.3565 29.4587 55.5502 29.5274 54.7438 29.5274H50.7291C50.4375 29.5274 50.163 29.4759 49.9056 29.3558C49.6483 29.2529 49.4081 29.0984 49.2022 28.8926C48.9963 28.6867 48.8247 28.4465 48.7046 28.1891C48.636 27.9661 48.5674 27.6916 48.5674 27.3828Z" fill="#C4D200"/>
    <path fill-rule="evenodd" clip-rule="evenodd" d="M30.1648 10.0367C30.1305 9.91659 30.0104 9.74502 29.8731 9.59061C28.7751 7.90925 27.3168 6.17642 25.4981 4.39212C25.3094 4.16908 25.1207 3.98036 25.0178 3.92889C24.932 3.9632 24.7776 4.27202 24.6746 4.44359C24.4173 4.85535 23.8168 5.52447 23.4737 5.91907L22.1697 7.29161C22.0153 7.44602 21.8438 7.61759 21.7408 7.772C21.6722 7.80631 21.3634 8.14944 21.2947 8.23523C21.2261 8.32101 20.9001 8.64699 20.883 8.73277C20.6771 8.81856 19.682 10.2597 19.5448 10.4828C19.2874 10.946 18.9957 11.5636 18.8413 12.0783C18.7899 12.2499 18.7041 12.5244 18.6869 12.696C18.4982 14.017 18.5668 15.4411 19.1673 16.6249C19.2703 16.8136 19.5619 17.4655 19.7506 17.5856C19.785 17.7401 20.334 18.3234 20.4712 18.4435C20.78 18.718 21.0031 18.9067 21.3634 19.1469C21.9982 19.593 22.7874 19.8675 23.6452 20.0734C23.8683 20.0905 24.1256 20.1591 24.383 20.1763C25.155 20.2106 25.3266 20.1935 26.0815 20.1248C26.3217 20.1077 26.5619 20.0047 26.8021 19.9704C28.1403 19.6444 29.2898 18.7866 30.0275 17.843C30.3878 17.3798 30.4393 17.294 30.7309 16.7621C31.0226 16.2303 31.3314 15.2523 31.3657 14.6347C31.4344 13.5195 31.3657 12.6617 30.9711 11.5979C30.9025 11.3406 30.302 10.0882 30.1648 10.0367ZM32.3265 8.6813C32.2751 8.50973 32.1035 8.26954 31.9148 8.0465C30.3535 5.66172 28.2775 3.19115 25.7212 0.669112C25.4467 0.343134 25.1893 0.0857836 25.0349 0C24.9148 0.0514702 24.6918 0.497545 24.5545 0.737739C24.1771 1.32107 23.3364 2.28184 22.856 2.83086L21.0031 4.76957C20.7972 4.97545 20.5227 5.21564 20.4026 5.43868C20.2997 5.49015 19.8707 5.97054 19.7678 6.09064C19.6649 6.21073 19.2188 6.67396 19.1845 6.79406C18.8928 6.91416 17.4688 8.97297 17.2972 9.28179C16.9198 9.93374 16.508 10.8087 16.3021 11.5465C16.2335 11.7867 16.1134 12.1984 16.0791 12.4043C15.8046 14.2744 15.9075 16.2989 16.7654 17.9631C16.9026 18.2376 17.3315 19.1469 17.6061 19.3185C17.6575 19.5415 18.4296 20.365 18.6183 20.5366C19.0472 20.9312 19.3732 21.1886 19.8707 21.5488C20.7629 22.1836 21.8781 22.5782 23.1134 22.8699C23.4222 22.8871 23.7996 22.99 24.1599 23.0072C25.2408 23.0586 25.5153 23.0415 26.5619 22.9214C26.905 22.8871 27.231 22.767 27.5913 22.6983C29.4785 22.2351 31.1256 21.017 32.1721 19.6788C32.6868 19.0268 32.7554 18.8896 33.1672 18.1518C33.579 17.3969 34.0079 16.0072 34.0594 15.1322C34.1451 13.5367 34.0594 12.3357 33.4932 10.8087C33.3731 10.5514 32.5152 8.74993 32.3265 8.6813Z" fill="#006178"/>
    <path fill-rule="evenodd" clip-rule="evenodd" d="M9.72748 20.4158C9.84758 20.4501 9.89905 20.4845 9.89905 20.4845C19.6441 31.4133 32.2199 33.4549 39.666 19.781C40.5924 17.7222 37.6586 16.7615 36.7836 18.3399C31.7224 29.1829 20.6563 28.8398 12.0951 18.4428C11.8034 18.0825 11.5118 17.6879 11.0142 17.6879H1.37216C0.737358 17.6879 0.222656 18.2026 0.222656 18.8374V19.2835C0.222656 19.9183 0.737358 20.433 1.37216 20.433H9.72748V20.4158Z" fill="#C4D200"/>
    <path fill-rule="evenodd" clip-rule="evenodd" d="M7.37739 26.2147C7.51465 26.2491 7.58327 26.2834 7.58327 26.2834C18.9582 37.5725 33.61 39.6828 42.2913 25.5456C43.3722 23.4182 40.4899 21.9942 39.1688 24.1731C33.0953 34.6559 20.142 34.8789 10.1396 24.1559C9.79649 23.7785 9.45336 23.3839 8.88718 23.3839H1.33822C0.600485 23.3839 0 23.9157 0 24.5677V25.0309C0 25.6829 0.600485 26.2147 1.33822 26.2147H7.37739Z" fill="#006178"/>
    <path d="M175.911 19.2661H180.201L179.995 18.7685L178.039 14.0333C177.867 14.4451 177.679 14.9254 177.438 15.4916C177.421 15.5259 177.404 15.5602 177.387 15.5946C177.233 15.9892 177.061 16.4181 176.855 16.8985L175.911 19.2661ZM167.899 26.918L176.014 7.58237C176.186 7.1706 176.46 6.84463 176.821 6.62159C177.181 6.39855 177.593 6.27845 178.073 6.27845C179.085 6.27845 179.772 6.72453 180.115 7.61668L188.213 26.918C188.23 26.9523 188.247 26.9866 188.247 27.0381C188.333 27.2611 188.384 27.5013 188.384 27.7244C188.384 27.9989 188.333 28.2905 188.23 28.565V28.5822C188.11 28.8739 187.955 29.1141 187.732 29.3199C187.509 29.5258 187.269 29.6802 186.978 29.8003H186.96L186.892 29.8175C186.857 29.8346 186.823 29.8346 186.789 29.8518C186.566 29.9204 186.36 29.9547 186.137 29.9547C185.845 29.9547 185.571 29.9033 185.313 29.8003L185.245 29.766C185.005 29.6631 184.799 29.5258 184.61 29.3542C184.404 29.1655 184.25 28.9253 184.13 28.668L184.112 28.6337L182.774 25.4254L182.054 23.7268H174.059L172.017 28.6337C172 28.6851 171.965 28.7366 171.931 28.7881C171.811 29.0111 171.674 29.1998 171.502 29.3542C171.296 29.543 171.073 29.6974 170.799 29.8003H170.782C170.524 29.9033 170.25 29.9547 169.958 29.9376C169.701 29.9376 169.443 29.8861 169.186 29.7832L169.117 29.766C169.083 29.7489 169.049 29.7489 169.032 29.7317C168.774 29.6288 168.551 29.4743 168.345 29.2685C168.139 29.0626 167.985 28.8224 167.882 28.5479C167.779 28.2905 167.728 28.016 167.728 27.7415C167.728 27.467 167.779 27.2097 167.865 26.9523L167.899 26.918ZM156.542 14.7196H159.287C159.664 14.7196 159.956 14.7196 160.144 14.7024C160.402 14.6852 160.642 14.6852 160.848 14.6681C161.037 14.6509 161.225 14.6166 161.431 14.5823C161.637 14.548 161.826 14.4965 162.015 14.4451C162.169 14.4107 162.306 14.3593 162.426 14.2906C162.512 14.2392 162.598 14.2049 162.666 14.1534L162.684 14.1362C162.735 14.1019 162.769 14.0504 162.804 13.999C162.855 13.9304 162.907 13.8274 162.958 13.7416C162.992 13.6387 163.027 13.5357 163.061 13.3985C163.095 13.2612 163.095 13.0897 163.095 12.9009C163.095 12.4377 163.027 12.0774 162.907 11.8029C162.804 11.597 162.649 11.4255 162.443 11.3054C162.135 11.1167 161.757 10.9794 161.294 10.8765C160.779 10.7735 160.162 10.722 159.441 10.722H156.559V14.7196H156.542ZM156.542 25.5111H159.973C160.385 25.5111 160.779 25.4768 161.14 25.4082C161.5 25.3396 161.843 25.2538 162.169 25.1337C162.478 25.0136 162.735 24.8763 162.975 24.7048C163.198 24.5332 163.404 24.3445 163.593 24.1043C163.747 23.8984 163.867 23.6754 163.953 23.4352C164.039 23.1778 164.073 22.9033 164.073 22.5773C164.073 22.097 163.988 21.6509 163.799 21.2734C163.61 20.8788 163.318 20.5357 162.941 20.2097L162.89 20.1582C162.495 19.8323 162.049 19.5921 161.586 19.4377C161.105 19.2661 160.556 19.1803 159.973 19.1803H156.542V25.5111ZM152.046 27.793V8.4402C152.046 8.14854 152.098 7.85687 152.218 7.59952C152.338 7.34217 152.493 7.10198 152.716 6.8961C152.921 6.69022 153.162 6.5358 153.419 6.43286C153.694 6.32992 153.968 6.2613 154.243 6.2613H159.269C159.818 6.2613 160.35 6.29561 160.882 6.34708C161.397 6.39855 161.894 6.48433 162.375 6.60443L162.426 6.62159C162.89 6.74169 163.336 6.87894 163.73 7.05051C164.159 7.23923 164.571 7.46227 164.965 7.71962C165.36 7.99413 165.72 8.3201 166.046 8.6804C166.355 9.04069 166.63 9.45245 166.853 9.89852C167.076 10.3446 167.23 10.825 167.35 11.3397C167.453 11.8372 167.505 12.3691 167.505 12.9181C167.505 14.5652 166.887 15.9377 165.652 17.0357C165.806 17.1558 165.943 17.2931 166.098 17.4303C166.561 17.8764 166.973 18.3568 167.35 18.8886C167.728 19.4377 168.019 20.0381 168.225 20.6558C168.431 21.2906 168.534 21.9254 168.534 22.5773C168.534 23.3151 168.431 24.0185 168.225 24.6876C168.019 25.3567 167.693 25.9915 167.282 26.5749C166.87 27.141 166.407 27.6386 165.875 28.0675C165.343 28.4964 164.76 28.8567 164.108 29.1484L164.039 29.1827C163.439 29.44 162.804 29.6459 162.135 29.766C161.431 29.9033 160.728 29.9719 160.007 29.9719H154.243C153.951 29.9719 153.676 29.9204 153.419 29.8003C153.162 29.6974 152.921 29.543 152.716 29.3371C152.51 29.1312 152.338 28.891 152.218 28.6337C152.098 28.3763 152.046 28.0847 152.046 27.793ZM136.245 27.793V8.4402C136.245 8.14854 136.297 7.85687 136.417 7.59952C136.537 7.34217 136.691 7.10198 136.914 6.8961L136.931 6.87894C137.137 6.67306 137.377 6.51865 137.635 6.41571C137.892 6.31277 138.167 6.2613 138.458 6.2613H138.544C138.836 6.2613 139.11 6.31277 139.368 6.41571C139.625 6.51865 139.848 6.67306 140.071 6.87894L140.123 6.93041C140.311 7.13629 140.466 7.35933 140.586 7.59952C140.706 7.87403 140.757 8.14854 140.757 8.4402V13.7931L145.956 7.08482C146.127 6.86178 146.35 6.67306 146.573 6.5358C146.814 6.39855 147.088 6.29561 147.38 6.2613H147.397C147.671 6.22698 147.929 6.24414 148.203 6.31277C148.478 6.38139 148.718 6.48433 148.941 6.63875C149.01 6.69022 149.078 6.74169 149.13 6.79316L149.164 6.82747C149.353 6.98188 149.507 7.1706 149.61 7.35933C149.627 7.39364 149.662 7.44511 149.679 7.47942C149.782 7.70246 149.85 7.94266 149.885 8.18285C149.919 8.47451 149.902 8.76618 149.816 9.05784C149.73 9.34951 149.593 9.60686 149.387 9.84705L149.37 9.86421C146.556 13.4843 146.985 12.9353 146.024 14.1877C145.424 14.9598 144.944 15.5774 144.532 16.0921C144.498 16.1436 144.446 16.195 144.429 16.2465L151.017 26.5749C151.171 26.8322 151.274 27.0896 151.326 27.3641C151.377 27.6386 151.36 27.9131 151.292 28.1876C151.223 28.4793 151.103 28.7538 150.931 28.9768C150.76 29.217 150.554 29.4057 150.314 29.5601C150.279 29.5773 150.245 29.6116 150.194 29.6288C149.953 29.766 149.713 29.8518 149.456 29.9033C149.181 29.9547 148.907 29.9547 148.632 29.8861C148.581 29.869 148.546 29.869 148.495 29.8518C148.238 29.7832 148.015 29.6802 147.809 29.543C147.569 29.3714 147.38 29.1655 147.225 28.9253C145.527 26.2489 144.154 24.1043 143.142 22.5087L141.529 19.9524L141.135 20.4499C141.032 20.5872 140.963 20.6729 140.946 20.6901L140.895 20.7587C140.86 20.8102 140.826 20.8617 140.809 20.896C140.792 20.9131 140.792 20.9475 140.774 20.9818L140.757 21.0504C140.74 21.1019 140.74 21.1533 140.74 21.222C140.723 21.3249 140.723 21.4793 140.723 21.668V27.793C140.723 28.0847 140.672 28.3763 140.551 28.6337C140.431 28.891 140.277 29.1312 140.054 29.3371L140.037 29.3542C139.831 29.5601 139.591 29.7145 139.333 29.8175C139.076 29.9204 138.801 29.9719 138.51 29.9719H138.424C138.132 29.9719 137.858 29.9204 137.6 29.8175C137.343 29.7145 137.12 29.5601 136.897 29.3542L136.846 29.3028C136.657 29.0969 136.502 28.8739 136.382 28.6337C136.297 28.3763 136.245 28.0847 136.245 27.793ZM123.155 19.2661H127.444L127.238 18.7685L125.282 14.0333C125.11 14.4451 124.922 14.9254 124.681 15.4916C124.664 15.5259 124.647 15.5602 124.63 15.5946C124.476 15.9892 124.304 16.4181 124.098 16.8985L123.155 19.2661ZM115.142 26.918L123.257 7.58237C123.429 7.1706 123.704 6.84463 124.064 6.62159C124.424 6.39855 124.836 6.27845 125.299 6.27845C126.311 6.27845 126.998 6.72453 127.341 7.61668L135.439 26.918C135.456 26.9523 135.473 26.9866 135.473 27.0381C135.559 27.2611 135.61 27.5013 135.61 27.7244C135.61 27.9989 135.559 28.2905 135.456 28.565V28.5822C135.336 28.8739 135.181 29.1141 134.958 29.3199C134.735 29.5258 134.495 29.6802 134.203 29.8003H134.186L134.118 29.8175C134.083 29.8346 134.049 29.8346 134.015 29.8518C133.792 29.9204 133.586 29.9547 133.363 29.9547C133.071 29.9547 132.797 29.9033 132.539 29.8003L132.471 29.766C132.23 29.6631 132.025 29.5258 131.836 29.3542C131.63 29.1655 131.476 28.9253 131.355 28.668L131.338 28.6337L130 25.4254L129.279 23.7268H121.284L119.243 28.6337C119.226 28.6851 119.191 28.7366 119.157 28.7881C119.037 29.0111 118.9 29.1998 118.728 29.3542C118.522 29.543 118.299 29.6974 118.025 29.8003H118.008C117.75 29.9033 117.476 29.9547 117.184 29.9376C116.927 29.9376 116.669 29.8861 116.412 29.7832L116.343 29.766L116.258 29.7317C116 29.6288 115.777 29.4743 115.571 29.2685C115.365 29.0626 115.211 28.8224 115.108 28.5479C115.005 28.2905 114.954 28.016 114.954 27.7415C114.954 27.467 115.005 27.2097 115.091 26.9523L115.142 26.918Z" fill="#006178"/>
</svg>
