<svg width="145" height="28" viewBox="0 0 145 28" fill="none" xmlns="http://www.w3.org/2000/svg">
    <path d="M71.6417 21.0768V6.18056C71.6417 5.95606 71.6814 5.73156 71.7738 5.53348C71.8662 5.33539 71.9851 5.15051 72.1568 4.99204L72.17 4.97883C72.3284 4.82036 72.5133 4.70151 72.7114 4.62227C72.9095 4.54304 73.1208 4.50342 73.3453 4.50342C73.5566 4.50342 73.7547 4.54304 73.9528 4.60907C74.1509 4.6751 74.3225 4.76754 74.4942 4.8996C74.5734 4.95242 74.6395 5.01845 74.6923 5.09768L79.42 10.8158L84.1873 5.07127C84.2533 4.99204 84.3326 4.9128 84.425 4.85998C84.5703 4.75433 84.7287 4.6751 84.8872 4.62227C85.0853 4.55624 85.2966 4.51663 85.5079 4.51663C85.7324 4.51663 85.9437 4.55624 86.1418 4.63548C86.3399 4.71471 86.5115 4.83357 86.6832 4.99204L86.7096 5.01845C86.8681 5.17692 86.987 5.34859 87.0662 5.54668C87.1586 5.75798 87.1982 5.96927 87.1982 6.19377V21.09C87.1982 21.3145 87.1586 21.539 87.0662 21.7371C86.9737 21.9352 86.8549 22.12 86.6832 22.2785L86.67 22.2917C86.5115 22.4502 86.3267 22.569 86.1286 22.6483C85.9305 22.7275 85.7192 22.7671 85.4947 22.7671H85.4287C85.2042 22.7671 84.9929 22.7275 84.7948 22.6483C84.5967 22.569 84.425 22.4502 84.2533 22.2917L84.2269 22.2653C84.0685 22.1068 83.9496 21.9352 83.8704 21.7371C83.7779 21.5258 83.7383 21.3145 83.7383 21.09V10.763L81.8499 13.1004C81.0839 14.0513 80.6613 14.5531 80.5821 14.6191L80.5293 14.6587C80.3576 14.7908 80.1991 14.8832 80.0143 14.9493C79.9746 14.9625 79.935 14.9757 79.9086 14.9889C79.7369 15.0417 79.5785 15.0681 79.4068 15.0681C79.1823 15.0681 78.971 15.0285 78.7597 14.9493C78.5484 14.87 78.3635 14.7512 78.2051 14.5927C78.1654 14.5531 78.1258 14.5003 78.0862 14.4606C77.9674 14.3154 77.558 13.8003 76.8581 12.9288C76.5543 12.559 75.9733 11.8459 75.0885 10.763V21.09C75.0885 21.3145 75.0489 21.539 74.9564 21.7371C74.864 21.9352 74.7451 22.12 74.5734 22.2785L74.5602 22.2917C74.4018 22.4502 74.2169 22.569 74.0188 22.6483C73.8207 22.7275 73.6094 22.7671 73.3849 22.7671H73.3189C73.0944 22.7671 72.8831 22.7275 72.685 22.6483C72.4869 22.569 72.3152 22.4502 72.1436 22.2917L72.1172 22.2653C71.9587 22.1068 71.8398 21.9352 71.7606 21.7371C71.6814 21.5258 71.6417 21.3145 71.6417 21.0768ZM55.4382 13.6287C55.4382 14.0513 55.4778 14.4474 55.557 14.8304C55.6362 15.2134 55.7551 15.5963 55.9136 15.9793L55.9268 16.0321C56.0852 16.3887 56.2569 16.732 56.4814 17.049C56.6927 17.3791 56.9436 17.6829 57.1945 17.947C57.4587 18.2111 57.7492 18.462 58.0661 18.6865C58.3831 18.911 58.7396 19.0959 59.1094 19.2676C59.4791 19.4392 59.8621 19.5581 60.2451 19.6373C60.6281 19.7166 61.0242 19.7562 61.4336 19.7562C61.9751 19.7562 62.4901 19.6902 62.9655 19.5581C63.4541 19.426 63.9163 19.2147 64.3521 18.9506C64.8011 18.6733 65.1973 18.3432 65.5406 17.9734C65.884 17.6036 66.1877 17.181 66.4386 16.7188L66.465 16.6792C66.7027 16.217 66.8876 15.7548 67.0065 15.253C67.1385 14.7512 67.1914 14.2097 67.1914 13.6419C67.1914 13.074 67.1253 12.5458 67.0065 12.0308C66.8744 11.5289 66.6895 11.0271 66.4386 10.5649C66.1877 10.0895 65.884 9.66691 65.5406 9.31035C65.1973 8.94059 64.8011 8.62365 64.3521 8.34633C64.3257 8.33312 64.3125 8.31991 64.2861 8.30671C63.8635 8.0558 63.4277 7.87091 62.9655 7.73886C62.4901 7.6068 61.9751 7.54077 61.4336 7.54077C61.0242 7.54077 60.6281 7.58039 60.2451 7.65962C59.8621 7.73886 59.4791 7.85771 59.1094 8.02938C58.7264 8.20106 58.3831 8.38594 58.0661 8.59724C57.7492 8.82174 57.4587 9.05944 57.1945 9.32356C56.9304 9.60088 56.6795 9.89141 56.4682 10.2216C56.2569 10.5517 56.0588 10.9083 55.9004 11.2912C55.7419 11.6874 55.6098 12.0704 55.5438 12.4401C55.4778 12.8099 55.4382 13.2061 55.4382 13.6287ZM52.0178 13.6287C52.0178 13.008 52.0839 12.3741 52.2027 11.7534C52.3348 11.1328 52.5197 10.5385 52.7574 9.95744C52.9951 9.38959 53.2856 8.84815 53.629 8.34633C53.9591 7.8445 54.3421 7.3823 54.7647 6.95971C55.1872 6.53712 55.6494 6.15415 56.1513 5.82401C56.6531 5.49386 57.1813 5.20333 57.7492 4.95242L57.802 4.92601C58.3566 4.6883 58.9377 4.51663 59.532 4.39777C60.1526 4.26571 60.7733 4.21289 61.4072 4.21289C62.0411 4.21289 62.6618 4.27892 63.2692 4.39777C63.8767 4.51663 64.471 4.71471 65.0388 4.95242C65.6067 5.20333 66.1349 5.49386 66.6235 5.82401C67.1121 6.16736 67.5611 6.55033 67.9705 6.97292C68.3667 7.3823 68.7365 7.8445 69.0534 8.34633C69.3835 8.84815 69.6609 9.38959 69.8854 9.95744C70.1231 10.5385 70.2947 11.1328 70.4136 11.7402C70.5325 12.3477 70.5853 12.9816 70.5853 13.6155C70.5853 14.2493 70.5325 14.87 70.4136 15.4775C70.2947 16.085 70.1231 16.6792 69.8854 17.2603C69.6609 17.8281 69.3835 18.3564 69.0534 18.8714C68.7365 19.3732 68.3667 19.8354 67.9705 20.258C67.5611 20.6806 67.1121 21.0768 66.6235 21.4201C66.1349 21.7635 65.6067 22.054 65.0388 22.3049C64.471 22.5558 63.8767 22.7407 63.2692 22.8728C62.6618 23.0048 62.0279 23.0709 61.4072 23.0709C60.7733 23.0709 60.1526 23.0048 59.532 22.886C58.9245 22.7671 58.3302 22.569 57.736 22.3181C57.1681 22.0804 56.6399 21.7767 56.1249 21.4465C55.623 21.1032 55.1608 20.7334 54.7382 20.3108C54.3157 19.8882 53.9327 19.426 53.6025 18.911C53.2724 18.4092 52.9819 17.881 52.7442 17.2867C52.4932 16.7056 52.3084 16.1114 52.1895 15.4907C52.0839 14.87 52.0178 14.2493 52.0178 13.6287ZM40.8457 19.3336H42.1927C42.7341 19.3336 43.2491 19.2676 43.7378 19.1355C44.2264 19.0035 44.6886 18.8054 45.1244 18.5413C45.5602 18.2771 45.9563 17.9602 46.2997 17.6036C46.6431 17.2471 46.9468 16.8377 47.1977 16.3887C47.4486 15.9265 47.6335 15.4511 47.7655 14.9493C47.8976 14.4474 47.9504 13.9192 47.9504 13.3646C47.9504 12.8099 47.8844 12.2949 47.7655 11.8195C47.6467 11.3573 47.4618 10.9215 47.2109 10.5121L47.1845 10.4593C46.9468 10.0631 46.6563 9.71974 46.3393 9.416C45.996 9.09906 45.613 8.82174 45.1904 8.59724C44.7546 8.37274 44.2792 8.20106 43.8038 8.08221C43.302 7.96336 42.7737 7.91053 42.2059 7.91053H40.8589V19.3336H40.8457ZM37.3857 21.0768V6.15415C37.3857 5.92965 37.4254 5.71836 37.5178 5.50707C37.6102 5.29577 37.7291 5.11089 37.9008 4.95242C38.0592 4.79395 38.2441 4.6883 38.4554 4.60907C38.6535 4.52983 38.8648 4.49021 39.0761 4.49021H42.1663C42.7869 4.49021 43.4076 4.54304 44.0151 4.64868C44.6226 4.75433 45.2036 4.9128 45.7583 5.1373C46.3129 5.3486 46.8411 5.61271 47.3298 5.91645C47.8184 6.22018 48.2674 6.56353 48.6768 6.9465C49.0861 7.32947 49.4691 7.76527 49.786 8.24068C50.1162 8.71609 50.3935 9.23112 50.6312 9.77256C50.8689 10.3272 51.0406 10.9083 51.1595 11.5025C51.2783 12.0968 51.3311 12.7175 51.3311 13.3513C51.3311 13.9852 51.2651 14.6059 51.1595 15.2134C51.0406 15.8208 50.8689 16.4151 50.6312 16.9962C50.4067 17.564 50.1294 18.0923 49.7993 18.5941C49.4691 19.0959 49.1125 19.5581 48.7032 19.9807C48.2938 20.4033 47.8448 20.7862 47.3562 21.1164C46.8675 21.4465 46.3393 21.7371 45.7715 21.988C45.2036 22.2389 44.6093 22.4238 44.0019 22.5426C43.3812 22.6747 42.7605 22.7275 42.1399 22.7275H39.0497C38.8252 22.7275 38.6139 22.6879 38.4158 22.5955C38.2177 22.5162 38.0328 22.3974 37.8744 22.2389C37.7159 22.0804 37.5838 21.8955 37.4914 21.6975C37.4386 21.5258 37.3857 21.3145 37.3857 21.0768Z" fill="#006178"/>
    <path fill-rule="evenodd" clip-rule="evenodd" d="M23.2161 7.72543C23.1897 7.63299 23.0973 7.50093 22.9916 7.38208C22.1465 6.0879 21.024 4.75411 19.6241 3.3807C19.4789 3.20902 19.3336 3.06376 19.2544 3.02414C19.1884 3.05055 19.0695 3.28826 18.9903 3.42032C18.7922 3.73726 18.33 4.25229 18.0659 4.55602L17.0622 5.61249C16.9434 5.73134 16.8113 5.8634 16.7321 5.98225C16.6792 6.00867 16.4415 6.27278 16.3887 6.33881C16.3359 6.40484 16.085 6.65575 16.0718 6.72178C15.9133 6.78781 15.1474 7.8971 15.0417 8.06878C14.8436 8.42534 14.6191 8.90075 14.5003 9.29692C14.4607 9.42898 14.3946 9.64028 14.3814 9.77234C14.2362 10.7892 14.289 11.8853 14.7512 12.7965C14.8304 12.9417 15.0549 13.4436 15.2002 13.536C15.2266 13.6549 15.6492 14.1039 15.7548 14.1963C15.9925 14.4076 16.1642 14.5529 16.4415 14.7377C16.9302 15.0811 17.5376 15.2924 18.1979 15.4509C18.3696 15.4641 18.5677 15.5169 18.7658 15.5301C19.36 15.5565 19.4921 15.5433 20.0731 15.4905C20.258 15.4773 20.4429 15.398 20.6278 15.3716C21.6579 15.1207 22.5426 14.4604 23.1105 13.7341C23.3878 13.3775 23.4274 13.3115 23.6519 12.9021C23.8764 12.4927 24.1141 11.74 24.1406 11.2646C24.1934 10.4062 24.1406 9.74592 23.8368 8.92716C23.784 8.72907 23.3218 7.76505 23.2161 7.72543ZM24.8801 6.68216C24.8405 6.55011 24.7084 6.36522 24.5631 6.19355C23.3614 4.35793 21.7635 2.45629 19.7958 0.515029C19.5845 0.264117 19.3864 0.0660293 19.2676 0C19.1751 0.0396176 19.0035 0.38297 18.8978 0.567852C18.6073 1.01685 17.9602 1.75638 17.5904 2.17897L16.1642 3.67123C16.0057 3.8297 15.7944 4.01458 15.702 4.18626C15.6228 4.22587 15.2926 4.59564 15.2134 4.68808C15.1342 4.78052 14.7908 5.13708 14.7644 5.22952C14.5399 5.32196 13.4438 6.90666 13.3117 7.14437C13.0212 7.64619 12.7043 8.31969 12.5458 8.88754C12.493 9.07243 12.4005 9.38937 12.3741 9.54784C12.1628 10.9873 12.2421 12.5456 12.9024 13.8265C13.008 14.0378 13.3382 14.7377 13.5495 14.8698C13.5891 15.0415 14.1833 15.6754 14.3286 15.8074C14.6587 16.1111 14.9097 16.3092 15.2926 16.5866C15.9793 17.0752 16.8377 17.3789 17.7885 17.6034C18.0262 17.6166 18.3168 17.6959 18.5941 17.7091C19.4261 17.7487 19.6374 17.7355 20.4429 17.643C20.707 17.6166 20.9579 17.5242 21.2353 17.4714C22.6879 17.1148 23.9557 16.1772 24.7612 15.1471C25.1574 14.6453 25.2102 14.5397 25.5272 13.9718C25.8441 13.3907 26.1743 12.3211 26.2139 11.6476C26.2799 10.4194 26.2139 9.49501 25.7781 8.31969C25.6856 8.1216 25.0253 6.73499 24.8801 6.68216Z" fill="#006178"/>
    <path fill-rule="evenodd" clip-rule="evenodd" d="M7.48841 15.7148C7.58085 15.7412 7.62047 15.7676 7.62047 15.7676C15.1214 24.1797 24.8013 25.7512 30.5326 15.2261C31.2458 13.6414 28.9876 12.9019 28.3141 14.1168C24.4183 22.4629 15.9005 22.1988 9.31082 14.1961C9.08632 13.9188 8.86182 13.615 8.47885 13.615H1.05716C0.568539 13.615 0.172363 14.0112 0.172363 14.4998V14.8432C0.172363 15.3318 0.568539 15.728 1.05716 15.728H7.48841V15.7148Z" fill="#006178"/>
    <path fill-rule="evenodd" clip-rule="evenodd" d="M5.67852 20.1786C5.78417 20.205 5.83699 20.2314 5.83699 20.2314C14.5925 28.9209 25.8703 30.5452 32.5524 19.6636C33.3844 18.026 31.1658 16.9299 30.149 18.6071C25.4741 26.6759 15.5037 26.8476 7.80466 18.5939C7.54055 18.3034 7.27643 17.9996 6.84064 17.9996H1.03006C0.462205 17.9996 0 18.409 0 18.9108V19.2674C0 19.7692 0.462205 20.1786 1.03006 20.1786H5.67852Z" fill="#006178"/>
    <path d="M135.399 14.8309H138.701L138.542 14.4479L137.037 10.8031C136.905 11.12 136.76 11.4898 136.575 11.9256C136.562 11.952 136.548 11.9784 136.535 12.0048C136.416 12.3085 136.284 12.6387 136.126 13.0085L135.399 14.8309ZM129.232 20.7207L135.479 5.83767C135.611 5.52073 135.822 5.26982 136.099 5.09815C136.377 4.92647 136.694 4.83403 137.063 4.83403C137.843 4.83403 138.371 5.17738 138.635 5.86409L144.868 20.7207C144.881 20.7471 144.894 20.7735 144.894 20.8131C144.96 20.9848 145 21.1697 145 21.3414C145 21.5527 144.96 21.7772 144.881 21.9884V22.0017C144.789 22.2262 144.67 22.411 144.498 22.5695C144.327 22.728 144.142 22.8468 143.917 22.9393H143.904L143.851 22.9525C143.825 22.9657 143.798 22.9657 143.772 22.9789C143.6 23.0317 143.442 23.0581 143.27 23.0581C143.046 23.0581 142.834 23.0185 142.636 22.9393L142.583 22.9129C142.399 22.8336 142.24 22.728 142.095 22.5959C141.936 22.4507 141.817 22.2658 141.725 22.0677L141.712 22.0413L140.682 19.5718L140.127 18.2644H133.973L132.402 22.0413C132.388 22.0809 132.362 22.1205 132.336 22.1601C132.243 22.3318 132.138 22.4771 132.006 22.5959C131.847 22.7412 131.675 22.86 131.464 22.9393H131.451C131.253 23.0185 131.041 23.0581 130.817 23.0449C130.619 23.0449 130.421 23.0053 130.223 22.9261L130.17 22.9129C130.144 22.8996 130.117 22.8996 130.104 22.8864C129.906 22.8072 129.734 22.6884 129.576 22.5299C129.417 22.3714 129.298 22.1865 129.219 21.9752C129.14 21.7771 129.1 21.5659 129.1 21.3546C129.1 21.1433 129.14 20.9452 129.206 20.7471L129.232 20.7207ZM120.49 11.3313H122.603C122.893 11.3313 123.118 11.3313 123.263 11.3181C123.461 11.3049 123.646 11.3049 123.805 11.2917C123.95 11.2785 124.095 11.2521 124.254 11.2257C124.412 11.1993 124.557 11.1596 124.703 11.12C124.822 11.0936 124.927 11.054 125.02 11.0012C125.086 10.9615 125.152 10.9351 125.205 10.8955L125.218 10.8823C125.257 10.8559 125.284 10.8163 125.31 10.7767C125.35 10.7238 125.389 10.6446 125.429 10.5786C125.455 10.4993 125.482 10.4201 125.508 10.3145C125.535 10.2088 125.535 10.0768 125.535 9.93149C125.535 9.57493 125.482 9.29761 125.389 9.08632C125.31 8.92785 125.191 8.79579 125.033 8.70335C124.795 8.55808 124.505 8.45244 124.148 8.3732C123.752 8.29397 123.276 8.25435 122.722 8.25435H120.503V11.3313H120.49ZM120.49 19.6378H123.131C123.448 19.6378 123.752 19.6114 124.029 19.5586C124.307 19.5057 124.571 19.4397 124.822 19.3473C125.059 19.2548 125.257 19.1492 125.442 19.0171C125.614 18.8851 125.772 18.7398 125.918 18.5549C126.036 18.3964 126.129 18.2248 126.195 18.0399C126.261 17.8418 126.287 17.6305 126.287 17.3796C126.287 17.0098 126.221 16.6665 126.076 16.376C125.931 16.0722 125.706 15.8081 125.416 15.5572L125.376 15.5176C125.072 15.2667 124.729 15.0818 124.373 14.9629C124.003 14.8309 123.58 14.7648 123.131 14.7648H120.49V19.6378ZM117.03 21.3942V6.49797C117.03 6.27347 117.07 6.04897 117.162 5.85088C117.255 5.65279 117.373 5.46791 117.545 5.30944C117.704 5.15097 117.888 5.03212 118.087 4.95288C118.298 4.87365 118.509 4.82082 118.72 4.82082H122.59C123.012 4.82082 123.422 4.84723 123.831 4.88685C124.227 4.92647 124.61 4.9925 124.98 5.08494L125.02 5.09815C125.376 5.19059 125.72 5.29623 126.023 5.42829C126.353 5.57356 126.67 5.74523 126.974 5.94332C127.278 6.15462 127.555 6.40553 127.806 6.68285C128.044 6.96017 128.255 7.27711 128.427 7.62047C128.598 7.96382 128.717 8.33358 128.81 8.72976C128.889 9.11273 128.929 9.52211 128.929 9.9447C128.929 11.2125 128.453 12.2689 127.502 13.1141C127.621 13.2065 127.727 13.3122 127.846 13.4178C128.202 13.7612 128.519 14.131 128.81 14.5403C129.1 14.9629 129.325 15.4251 129.483 15.9005C129.642 16.3892 129.721 16.8778 129.721 17.3796C129.721 17.9475 129.642 18.4889 129.483 19.0039C129.325 19.5189 129.074 20.0076 128.757 20.4566C128.44 20.8924 128.083 21.2753 127.674 21.6055C127.265 21.9356 126.816 22.2129 126.314 22.4374L126.261 22.4639C125.799 22.6619 125.31 22.8204 124.795 22.9129C124.254 23.0185 123.712 23.0713 123.158 23.0713H118.72C118.496 23.0713 118.285 23.0317 118.087 22.9393C117.888 22.86 117.704 22.7412 117.545 22.5827C117.387 22.4242 117.255 22.2394 117.162 22.0413C117.07 21.8432 117.03 21.6187 117.03 21.3942ZM104.867 21.3942V6.49797C104.867 6.27347 104.907 6.04897 105 5.85088C105.092 5.65279 105.211 5.46791 105.383 5.30944L105.396 5.29623C105.554 5.13776 105.739 5.01891 105.937 4.93968C106.135 4.86044 106.347 4.82082 106.571 4.82082H106.637C106.862 4.82082 107.073 4.86044 107.271 4.93968C107.469 5.01891 107.641 5.13776 107.812 5.29623L107.852 5.33585C107.997 5.49432 108.116 5.666 108.209 5.85088C108.301 6.06217 108.341 6.27347 108.341 6.49797V10.6182L112.342 5.4547C112.474 5.28303 112.646 5.13776 112.817 5.03212C113.002 4.92647 113.214 4.84723 113.438 4.82082H113.451C113.663 4.79441 113.861 4.80762 114.072 4.86044C114.283 4.91326 114.468 4.9925 114.64 5.11135C114.693 5.15097 114.745 5.19059 114.785 5.2302L114.811 5.25662C114.957 5.37547 115.076 5.52073 115.155 5.666C115.168 5.69241 115.194 5.73203 115.208 5.75844C115.287 5.93012 115.34 6.115 115.366 6.29988C115.393 6.52438 115.379 6.74888 115.313 6.97338C115.247 7.19788 115.142 7.39597 114.983 7.58085L114.97 7.59405C112.804 10.3805 113.134 9.9579 112.395 10.9219C111.933 11.5162 111.563 11.9916 111.246 12.3878C111.22 12.4274 111.18 12.467 111.167 12.5066L116.238 20.4566C116.357 20.6547 116.436 20.8527 116.475 21.064C116.515 21.2753 116.502 21.4866 116.449 21.6979C116.396 21.9224 116.304 22.1337 116.172 22.3054C116.04 22.4903 115.881 22.6355 115.696 22.7544C115.67 22.7676 115.643 22.794 115.604 22.8072C115.419 22.9129 115.234 22.9789 115.036 23.0185C114.825 23.0581 114.613 23.0581 114.402 23.0053C114.362 22.9921 114.336 22.9921 114.296 22.9789C114.098 22.9261 113.927 22.8468 113.768 22.7412C113.583 22.6091 113.438 22.4507 113.319 22.2658C112.012 20.2057 110.955 18.5549 110.176 17.3268L108.935 15.3591L108.631 15.7421C108.552 15.8477 108.499 15.9137 108.486 15.927L108.446 15.9798C108.42 16.0194 108.393 16.059 108.38 16.0854C108.367 16.0986 108.367 16.125 108.354 16.1515L108.341 16.2043C108.327 16.2439 108.327 16.2835 108.327 16.3363C108.314 16.4156 108.314 16.5344 108.314 16.6797V21.3942C108.314 21.6187 108.275 21.8432 108.182 22.0413C108.09 22.2394 107.971 22.4242 107.799 22.5827L107.786 22.5959C107.628 22.7544 107.443 22.8732 107.245 22.9525C107.046 23.0317 106.835 23.0713 106.611 23.0713H106.545C106.32 23.0713 106.109 23.0317 105.911 22.9525C105.713 22.8732 105.541 22.7544 105.369 22.5959L105.33 22.5563C105.184 22.3978 105.066 22.2261 104.973 22.0413C104.907 21.8432 104.867 21.6187 104.867 21.3942ZM94.7914 14.8309H98.0929L97.9344 14.4479L96.4289 10.8031C96.2969 11.12 96.1516 11.4898 95.9667 11.9256C95.9535 11.952 95.9403 11.9784 95.9271 12.0048C95.8083 12.3085 95.6762 12.6387 95.5177 13.0085L94.7914 14.8309ZM88.6243 20.7207L94.8706 5.83767C95.0027 5.52073 95.214 5.26982 95.4913 5.09815C95.7686 4.92647 96.0856 4.83403 96.4421 4.83403C97.2213 4.83403 97.7495 5.17738 98.0136 5.86409L104.247 20.7207C104.26 20.7471 104.273 20.7735 104.273 20.8131C104.339 20.9848 104.379 21.1697 104.379 21.3414C104.379 21.5527 104.339 21.7772 104.26 21.9884V22.0017C104.168 22.2262 104.049 22.411 103.877 22.5695C103.705 22.728 103.52 22.8468 103.296 22.9393H103.283L103.23 22.9525C103.204 22.9657 103.177 22.9657 103.151 22.9789C102.979 23.0317 102.821 23.0581 102.649 23.0581C102.424 23.0581 102.213 23.0185 102.015 22.9393L101.962 22.9129C101.777 22.8336 101.619 22.728 101.474 22.5959C101.315 22.4507 101.196 22.2658 101.104 22.0677L101.091 22.0413L100.061 19.5718L99.5059 18.2644H93.352L91.7805 22.0413C91.7673 22.0809 91.7409 22.1205 91.7144 22.1601C91.622 22.3318 91.5164 22.4771 91.3843 22.5959C91.2258 22.7412 91.0542 22.86 90.8429 22.9393H90.8296C90.6316 23.0185 90.4203 23.0581 90.1958 23.0449C89.9977 23.0449 89.7996 23.0053 89.6015 22.9261L89.5487 22.9129L89.4826 22.8864C89.2846 22.8072 89.1129 22.6884 88.9544 22.5299C88.7959 22.3714 88.6771 22.1865 88.5979 21.9752C88.5186 21.7771 88.479 21.5659 88.479 21.3546C88.479 21.1433 88.5186 20.9452 88.5846 20.7471L88.6243 20.7207Z" fill="#006178"/>
</svg>
