<svg width="16" height="29" viewBox="0 0 16 29" fill="none" xmlns="http://www.w3.org/2000/svg">
    <path d="M0.235742 15.8342C-0.418218 17.2496 0.324288 17.9262 2.0184 19.082C3.4586 20.0616 5.44822 20.4198 6.72627 20.5631C6.20246 21.1175 8.6028 18.5757 1.68982 25.8969C0.224007 27.4438 2.58381 29.9257 4.04855 28.4117L8.01392 24.2008C9.532 25.8088 10.9871 27.3499 11.9793 28.4175C13.4451 29.9375 15.8038 27.4767 14.354 25.9028C14.2452 25.7888 8.98045 20.2284 9.30157 20.569C10.5956 20.4257 12.5554 20.0463 13.9785 19.0878L13.9774 19.0867C15.6715 17.925 16.414 17.2496 15.7697 15.8342C15.3803 15.0308 14.3305 14.359 12.933 15.5206C12.933 15.5206 11.0458 17.1122 8.00218 17.1122C4.95748 17.1122 3.07135 15.5206 3.07135 15.5206C1.67488 14.3531 0.620863 15.0308 0.235742 15.8342Z" fill="#FF8717"/>
    <path d="M8.00053 15.1862C11.6702 15.1862 14.6667 11.987 14.6667 8.0486C14.6667 4.09374 11.6702 0.894531 8.00053 0.894531C4.32982 0.894531 1.33333 4.09374 1.33333 8.0486C1.33333 11.987 4.32982 15.1862 8.00053 15.1862ZM8.00053 4.51865C9.8037 4.51865 11.2745 6.09706 11.2745 8.0486C11.2745 9.98366 9.8037 11.5621 8.00053 11.5621C6.19736 11.5621 4.72654 9.98366 4.72654 8.0486C4.72549 6.09589 6.1963 4.51865 8.00053 4.51865Z" fill="#FF8717"/>
</svg>
