<svg width="223" height="188" viewBox="0 0 223 188" fill="none" xmlns="http://www.w3.org/2000/svg">
    <g filter="url(#filter0_d)">
        <path d="M169.915 59.4869H95.6493C88.4585 59.4869 82.5644 65.4058 82.5644 72.6269V119.86C82.5644 127.081 88.4585 133 95.6493 133H169.915C177.106 133 183 127.081 183 119.86V72.6269C183.029 65.3762 177.106 59.4869 169.915 59.4869ZM175.956 120.038C175.956 122.642 173.835 124.802 171.212 124.802H95.502C92.9086 124.802 90.7572 122.671 90.7572 120.038V86.8027H175.956V120.038ZM175.956 74.2842H90.7572V72.4789C90.7572 69.8746 92.8791 67.7142 95.502 67.7142H171.212C173.805 67.7142 175.956 69.845 175.956 72.4789V74.2842Z" fill="#006178"/>
        <path d="M94.7063 51.3779H140.769L131.397 32.319C128.185 25.8081 120.316 23.1446 113.833 26.3704L47.2883 59.3981C40.8047 62.6239 38.1524 70.5257 41.3647 77.0365L62.2298 119.386C65.0295 125.098 71.4835 127.88 77.4071 126.252C75.6389 123.263 74.6369 119.801 74.6369 116.101V71.5615C74.6074 60.4635 83.6548 51.3779 94.7063 51.3779Z" fill="#006178"/>
        <path d="M104.166 119.682C106.73 119.682 109.058 118.528 110.591 116.693C112.153 118.528 114.452 119.682 117.015 119.682C121.701 119.682 125.503 115.865 125.503 111.159C125.503 106.454 121.701 102.636 117.015 102.636C114.452 102.636 112.123 103.79 110.591 105.625C109.029 103.79 106.73 102.636 104.166 102.636C99.4805 102.636 95.6788 106.454 95.6788 111.159C95.6788 115.865 99.4805 119.682 104.166 119.682Z" fill="#006178"/>
    </g>
    <defs>
        <filter id="filter0_d" x="0" y="0" width="223" height="188" filterUnits="userSpaceOnUse" color-interpolation-filters="sRGB">
            <feFlood flood-opacity="0" result="BackgroundImageFix"/>
            <feColorMatrix in="SourceAlpha" type="matrix" values="0 0 0 0 0 0 0 0 0 0 0 0 0 0 0 0 0 0 127 0"/>
            <feOffset dy="15"/>
            <feGaussianBlur stdDeviation="20"/>
            <feColorMatrix type="matrix" values="0 0 0 0 0.886302 0 0 0 0 0.903568 0 0 0 0 0.920833 0 0 0 1 0"/>
            <feBlend mode="normal" in2="BackgroundImageFix" result="effect1_dropShadow"/>
            <feBlend mode="normal" in="SourceGraphic" in2="effect1_dropShadow" result="shape"/>
        </filter>
    </defs>
</svg>
