<svg width="40" height="40" viewBox="0 0 40 40" fill="none" xmlns="http://www.w3.org/2000/svg">
    <path d="M20 0C8.95431 0 0 8.95431 0 20C0 31.0457 8.95431 40 20 40C31.0457 40 40 31.0457 40 20C39.9883 8.95925 31.0408 0.0118025 20 0ZM28.4228 20.6373C28.2843 20.915 28.0592 21.1402 27.7814 21.2786V21.2857L16.3529 27C15.6471 27.3527 14.7891 27.0665 14.4363 26.3607C14.3361 26.1601 14.2844 25.9386 14.2857 25.7143V14.2858C14.2853 13.4968 14.9246 12.8569 15.7136 12.8565C15.9355 12.8564 16.1544 12.908 16.3529 13.0072L27.7814 18.7215C28.4876 19.0734 28.7748 19.9311 28.4228 20.6373Z" fill="#C4D200"/>
</svg>
