<svg xmlns="http://www.w3.org/2000/svg" display="none">
    <symbol id="dots-menu" viewBox="0 0 82 17">
        <path d="M17.0833 8.5C17.0833 13.1944 13.2591 17 8.54167 17C3.82423 17 0 13.1944 0 8.5C0 3.80558 3.82423 0 8.54167 0C13.2591 0 17.0833 3.80558 17.0833 8.5Z"/>
        <path d="M49.5417 8.5C49.5417 13.1944 45.7174 17 41 17C36.2826 17 32.4583 13.1944 32.4583 8.5C32.4583 3.80558 36.2826 0 41 0C45.7174 0 49.5417 3.80558 49.5417 8.5Z"/>
        <path d="M82 8.5C82 13.1944 78.1758 17 73.4583 17C68.7409 17 64.9167 13.1944 64.9167 8.5C64.9167 3.80558 68.7409 0 73.4583 0C78.1758 0 82 3.80558 82 8.5Z"/>
    </symbol>

    <symbol id="phone" viewBox="0 0 25 26">
        <path d="M24.3444 18.3861L20.8483 14.8899C19.5996 13.6413 17.477 14.1408 16.9775 15.764C16.6029 16.8878 15.3543 17.5121 14.2305 17.2623C11.7333 16.638 8.36196 13.3916 7.73765 10.7694C7.36306 9.64562 8.11224 8.39699 9.236 8.02245C10.8592 7.523 11.3587 5.40033 10.11 4.1517L6.61388 0.655531C5.61497 -0.21851 4.11662 -0.21851 3.24258 0.655531L0.870179 3.02793C-1.50222 5.52519 1.11991 12.1429 6.98847 18.0115C12.857 23.8801 19.4748 26.6271 21.972 24.1298L24.3444 21.7574C25.2185 20.7585 25.2185 19.2601 24.3444 18.3861Z"/>
    </symbol>

    <symbol id="location" viewBox="0 0 19 24">
        <path d="M9.5 0C4.26185 0 0 4.10063 0 9.14063C0 11.1352 0.654769 13.0303 1.89513 14.6203L8.91441 23.7165C8.93195 23.7385 8.95874 23.7469 8.97823 23.7666C9.329 24.128 9.83518 24.0371 10.0851 23.7165C12.1064 21.1215 15.8114 16.275 17.2359 14.4469C17.2359 14.4469 17.2364 14.4455 17.2369 14.4445L17.2457 14.4333C18.3935 12.8817 19 11.0517 19 9.14063C19 4.10063 14.7382 0 9.5 0ZM9.5 14.0719C6.67972 14.0719 4.37487 11.8542 4.37487 9.14063C4.37487 6.42703 6.67972 4.20938 9.5 4.20938C12.3203 4.20938 14.6251 6.42703 14.6251 9.14063C14.6251 11.8542 12.3203 14.0719 9.5 14.0719Z"/>
    </symbol>

    <symbol id="mail" viewBox="0 0 30 22">
        <path d="M15.8678 14.7724C15.5844 14.9487 15.2656 15.0192 14.9823 15.0192C14.6989 15.0192 14.3802 14.9487 14.0968 14.7724L0 6.20514V17.593C0 20.0256 1.98347 22 4.42739 22H25.5726C28.0165 22 30 20.0256 30 17.593V6.20514L15.8678 14.7724Z"/>
        <path d="M25.5726 0H4.42738C2.33765 0 0.566696 1.48077 0.141666 3.45512L15.0177 12.4808L29.8583 3.45512C29.4333 1.48077 27.6623 0 25.5726 0Z"/>
    </symbol>

</svg>