<svg xmlns="http://www.w3.org/2000/svg" display="none">
    <symbol id="dots-menu" viewBox="0 0 82 17">
        <path d="M17.0833 8.5C17.0833 13.1944 13.2591 17 8.54167 17C3.82423 17 0 13.1944 0 8.5C0 3.80558 3.82423 0 8.54167 0C13.2591 0 17.0833 3.80558 17.0833 8.5Z"/>
        <path d="M49.5417 8.5C49.5417 13.1944 45.7174 17 41 17C36.2826 17 32.4583 13.1944 32.4583 8.5C32.4583 3.80558 36.2826 0 41 0C45.7174 0 49.5417 3.80558 49.5417 8.5Z"/>
        <path d="M82 8.5C82 13.1944 78.1758 17 73.4583 17C68.7409 17 64.9167 13.1944 64.9167 8.5C64.9167 3.80558 68.7409 0 73.4583 0C78.1758 0 82 3.80558 82 8.5Z"/>
    </symbol>

    <symbol id="phone" viewBox="0 0 25 26">
        <path d="M24.3444 18.3861L20.8483 14.8899C19.5996 13.6413 17.477 14.1408 16.9775 15.764C16.6029 16.8878 15.3543 17.5121 14.2305 17.2623C11.7333 16.638 8.36196 13.3916 7.73765 10.7694C7.36306 9.64562 8.11224 8.39699 9.236 8.02245C10.8592 7.523 11.3587 5.40033 10.11 4.1517L6.61388 0.655531C5.61497 -0.21851 4.11662 -0.21851 3.24258 0.655531L0.870179 3.02793C-1.50222 5.52519 1.11991 12.1429 6.98847 18.0115C12.857 23.8801 19.4748 26.6271 21.972 24.1298L24.3444 21.7574C25.2185 20.7585 25.2185 19.2601 24.3444 18.3861Z"/>
    </symbol>

</svg>