<svg width="33" height="21" viewBox="0 0 33 21" fill="none" xmlns="http://www.w3.org/2000/svg">
    <path d="M27.3841 12.3631C26.8506 11.6631 27.0032 11.3517 27.3841 10.726C27.391 10.7188 31.7952 4.39596 32.249 2.25167L32.2517 2.25025C32.4773 1.46882 32.2517 0.894531 31.1613 0.894531H27.5532C26.6347 0.894531 26.2112 1.38739 25.9843 1.93882C25.9843 1.93882 24.1472 6.50739 21.5484 9.46882C20.7096 10.3245 20.3218 10.5988 19.8639 10.5988C19.6384 10.5988 19.2878 10.3245 19.2878 9.5431V2.25025C19.2878 1.3131 19.0307 0.894531 18.2703 0.894531H12.5968C12.0207 0.894531 11.6783 1.33167 11.6783 1.73882C11.6783 2.62739 12.9777 2.83167 13.1125 5.33167V10.756C13.1125 11.9445 12.9048 12.1631 12.4442 12.1631C11.2176 12.1631 8.24066 7.57596 6.47647 2.32596C6.12034 1.30739 5.77245 0.89596 4.84704 0.89596H1.23754C0.207632 0.89596 0 1.38882 0 1.94025C0 2.91453 1.22654 7.75882 5.7037 14.1588C8.68755 18.5274 12.8897 20.8945 16.7123 20.8945C19.01 20.8945 19.2905 20.3688 19.2905 19.4645C19.2905 15.2902 19.0829 14.896 20.2338 14.896C20.7673 14.896 21.6859 15.1702 23.8309 17.2774C26.2827 19.776 26.6856 20.8945 28.0578 20.8945H31.666C32.6945 20.8945 33.2157 20.3688 32.9159 19.3317C32.2297 17.1502 27.5931 12.6631 27.3841 12.3631Z" fill="#1C8EF8"/>
</svg>
